<svg xmlns="http://www.w3.org/2000/svg" viewBox="0 0 32 32" width="32" height="32">
  <!-- Favicon - Just the house icon -->
  <g transform="translate(16, 16)">
    <!-- Pin Shape -->
    <path d="M-12 0 C-12 -6.6 -6.6 -12 0 -12 C6.6 -12 12 -6.6 12 0 C12 4 8 8 0 20 C-8 8 -12 4 -12 0 Z" fill="#1e88e5"/>
    
    <!-- House -->
    <g transform="translate(0, -6)">
      <rect x="-5" y="-2" width="10" height="6" rx="1" fill="white"/>
      <path d="M-6 -2 L0 -6 L6 -2 Z" fill="#1e88e5"/>
      <rect x="-4.5" y="-5" width="1.2" height="3" fill="#1e88e5"/>
      
      <!-- Windows -->
      <rect x="-3.5" y="-1" width="1.2" height="1.2" fill="#1e88e5"/>
      <rect x="-1.5" y="-1" width="1.2" height="1.2" fill="#1e88e5"/>
      <rect x="-3.5" y="1" width="1.2" height="1.2" fill="#1e88e5"/>
      <rect x="-1.5" y="1" width="1.2" height="1.2" fill="#1e88e5"/>
    </g>
  </g>
</svg>
